<?xml version="1.0" encoding="UTF-8"?><svg xmlns="http://www.w3.org/2000/svg" xmlns:xlink="http://www.w3.org/1999/xlink" contentScriptType="text/ecmascript" width="30" zoomAndPan="magnify" contentStyleType="text/css" viewBox="0 0 30 30.000001" height="30.000001" preserveAspectRatio="xMidYMid meet" version="1.0"><defs><clipPath id="clip-0"><path d="M 0.992188 0.507812 L 29.296875 0.507812 L 29.296875 28.816406 L 0.992188 28.816406 Z M 0.992188 0.507812 " clip-rule="nonzero"/></clipPath></defs><g clip-path="url(#clip-0)"><path fill="rgb(85.099792%, 56.858826%, 44.309998%)" d="M 15.144531 2.226562 C 8.289062 2.226562 2.707031 7.804688 2.707031 14.660156 C 2.707031 21.519531 8.289062 27.097656 15.144531 27.097656 C 22.003906 27.097656 27.582031 21.519531 27.582031 14.660156 C 27.582031 7.804688 22.003906 2.226562 15.144531 2.226562 Z M 15.144531 28.8125 C 7.339844 28.8125 0.992188 22.464844 0.992188 14.660156 C 0.992188 6.859375 7.339844 0.511719 15.144531 0.511719 C 22.949219 0.511719 29.296875 6.859375 29.296875 14.660156 C 29.296875 22.464844 22.949219 28.8125 15.144531 28.8125 " fill-opacity="1" fill-rule="nonzero"/></g><path fill="rgb(85.099792%, 56.858826%, 44.309998%)" d="M 20.808594 14.878906 L 23.269531 9.308594 L 7.027344 9.308594 L 9.773438 14.878906 L 20.808594 14.878906 " fill-opacity="1" fill-rule="nonzero"/><path fill="rgb(85.099792%, 56.858826%, 44.309998%)" d="M 21.3125 15.652344 L 16.171875 15.652344 L 16.171875 17.015625 L 14.121094 17.015625 L 14.121094 15.652344 L 9.289062 15.652344 L 6.597656 10.1875 L 6.597656 22.21875 L 23.695312 22.21875 L 23.695312 10.269531 L 21.3125 15.652344 " fill-opacity="1" fill-rule="nonzero"/><path fill="rgb(85.099792%, 56.858826%, 44.309998%)" d="M 15.773438 16.691406 L 14.453125 16.691406 L 14.453125 15.113281 L 15.773438 15.113281 L 15.773438 16.691406 " fill-opacity="1" fill-rule="nonzero"/><path fill="rgb(85.099792%, 56.858826%, 44.309998%)" d="M 12.914062 9.339844 L 12.914062 8.035156 L 17.386719 8.035156 L 17.386719 9.339844 L 18.054688 9.339844 L 18.054688 7.105469 L 12.242188 7.105469 L 12.242188 9.339844 L 12.914062 9.339844 " fill-opacity="1" fill-rule="nonzero"/></svg>